<svg xmlns="http://www.w3.org/2000/svg" width="40" height="40" fill="none"><path fill="#FF4C00" d="M37.196 7.85c-.023.666-.195 1.058-.57 1.329a2439.448 2439.448 0 0 1-8.173 5.922c-.582.42-1.294.332-1.784-.171-.512-.527-.557-1.224-.1-1.875 1.728-2.46 3.46-4.919 5.192-7.378.193-.274.378-.554.582-.821.54-.71 1.467-.797 2.104-.173.796.781 1.587 1.57 2.341 2.393.228.248.327.616.407.774z"/><path fill="#CCC" d="M37.2 32.145c-.09.174-.201.549-.436.806a67.353 67.353 0 0 1-2.289 2.34c-.663.657-1.612.584-2.152-.178a1937.333 1937.333 0 0 1-5.793-8.232c-.425-.607-.355-1.302.14-1.811.5-.515 1.211-.587 1.815-.151 2.708 1.954 5.41 3.917 8.113 5.878.387.281.57.673.602 1.348z"/><path fill="#FF4C00" d="M21.686.003c.505 0 1.008-.008 1.513.001 1.067.021 1.662.73 1.49 1.796a3545.82 3545.82 0 0 1-1.62 9.85c-.119.721-.653 1.176-1.357 1.187-.709.01-1.26-.42-1.383-1.144-.425-2.507-.831-5.017-1.244-7.526l-.406-2.472c-.137-.83.379-1.548 1.201-1.667.06-.01.122-.02.183-.02.542-.002 1.083-.001 1.624-.001V.003h-.001z"/><path fill="#CCC" d="M21.702 39.996c-.516 0-1.034.012-1.55-.002-1.043-.027-1.624-.746-1.455-1.783.528-3.236 1.056-6.471 1.586-9.706.132-.806.545-1.25 1.229-1.33.78-.091 1.423.372 1.553 1.156.549 3.295 1.092 6.59 1.625 9.889.17 1.048-.428 1.752-1.475 1.775-.503.01-1.008.001-1.513.001z"/><path fill="#FF4C00" d="M13.806 18.133c-.097-.018-.291-.046-.482-.091l-9.266-2.175c-1.15-.27-1.558-1.08-1.104-2.19.376-.921.748-1.845 1.128-2.764.39-.946 1.292-1.25 2.144-.713 2.788 1.76 5.572 3.524 8.355 5.29.61.388.836.989.642 1.638-.182.607-.705 1.006-1.418 1.005z"/><path fill="#CCC" d="M5.56 30.064c-.734-.022-1.182-.29-1.42-.847a98.979 98.979 0 0 1-1.285-3.143c-.324-.843.137-1.678 1.032-1.891 3.05-.727 6.104-1.44 9.155-2.158.168-.04.335-.082.503-.119.721-.159 1.352.164 1.625.832.27.659.078 1.344-.534 1.733-2.822 1.797-5.65 3.586-8.482 5.367-.211.133-.473.182-.594.227v-.001z"/><path fill="#FF4C00" d="M19.847 12.032c0 .684-.348 1.17-.928 1.38-.582.21-1.185.043-1.553-.454-.17-.229-.31-.48-.458-.724-1.602-2.602-3.204-5.206-4.804-7.81-.628-1.02-.355-1.878.744-2.341.907-.383 1.814-.767 2.724-1.142.948-.391 1.782.031 2.012 1.034.746 3.241 1.483 6.484 2.22 9.727.031.133.035.271.042.33z"/><path fill="#CCC" d="M19.846 28.08c-.139.62-.313 1.41-.492 2.197-.58 2.55-1.166 5.1-1.745 7.65-.25 1.1-1.062 1.54-2.083 1.115a323.36 323.36 0 0 1-2.79-1.176c-.942-.402-1.236-1.3-.701-2.173 1.732-2.83 3.47-5.654 5.212-8.478.382-.622.974-.85 1.613-.648.615.194.989.7.986 1.511v.001zm7.356 11.158c-.677-.03-1.228-.445-1.382-1.115-.759-3.302-1.512-6.606-2.258-9.91-.159-.703.189-1.34.837-1.605.663-.27 1.323-.055 1.724.595 1.178 1.9 2.346 3.809 3.518 5.713.56.91 1.121 1.82 1.678 2.732.558.913.277 1.819-.695 2.231-.93.395-1.86.787-2.794 1.17-.201.084-.419.128-.628.19z"/><path fill="#FF4C00" d="M24.961 13.492c-.945.005-1.603-.79-1.393-1.72.741-3.294 1.491-6.585 2.248-9.875.203-.88 1.063-1.333 1.895-.997 1.016.41 2.027.835 3.031 1.273.82.358 1.117 1.29.644 2.066-1.755 2.874-3.523 5.74-5.29 8.606-.258.419-.635.65-1.134.647zm-22.959 6.51c0-.537-.005-1.074.001-1.61.01-.964.72-1.605 1.646-1.451 3.262.542 6.523 1.096 9.783 1.653.751.129 1.22.698 1.21 1.423-.01.717-.468 1.261-1.207 1.388-3.26.558-6.52 1.112-9.782 1.654-.926.153-1.639-.488-1.65-1.448-.005-.537 0-1.073 0-1.61zM6.11 7.987c.169-.319.282-.691.517-.947a65.896 65.896 0 0 1 2.29-2.338c.66-.652 1.609-.568 2.149.196 1.93 2.729 3.852 5.463 5.771 8.2.428.609.362 1.34-.136 1.844-.501.508-1.207.572-1.817.132-2.697-1.947-5.389-3.902-8.081-5.855-.397-.288-.607-.68-.602-1.18l-.091-.05v-.002z"/><path fill="#CCC" d="M6.202 31.926c.004-.47.198-.849.571-1.12 2.712-1.97 5.424-3.939 8.142-5.898.59-.425 1.294-.348 1.787.15.498.503.565 1.235.137 1.844a2613.64 2613.64 0 0 1-5.77 8.2c-.54.763-1.49.85-2.15.198-.784-.775-1.57-1.552-2.314-2.366-.234-.256-.334-.636-.494-.96.031-.015.062-.032.092-.048h-.001z"/></svg>